HIERARCHY
ROOT hip
{
	OFFSET 0.000000 0.000000 0.000000 
	CHANNELS 6 Xposition Yposition Zposition Xrotation Zrotation Yrotation
	JOINT abdomen
	{
		OFFSET 0.000000 3.402643 0.000000 
		CHANNELS 3 Xrotation Zrotation Yrotation
		JOINT chest
		{
			OFFSET 0.000000 8.438565 -0.680529 
			CHANNELS 3 Xrotation Zrotation Yrotation
			JOINT neck
			{
				OFFSET 0.000000 10.207942 -0.272212 
				CHANNELS 3 Xrotation Zrotation Yrotation
				JOINT head
				{
					OFFSET 0.000000 3.130431 0.000000 
					CHANNELS 3 Xrotation Zrotation Yrotation
					End Site
					{
						OFFSET 0.000000 3.130435 0.000000 
					}
				}
			}
			JOINT lCollar
			{
				OFFSET 3.470700 6.669187 -0.816635 
				CHANNELS 3 Yrotation Zrotation Xrotation
				JOINT lShldr
				{
					OFFSET 3.198488 0.000000 0.000000 
					CHANNELS 3 Zrotation Yrotation Xrotation
					JOINT lForeArm
					{
						OFFSET 10.139888 0.000000 0.000000 
						CHANNELS 3 Yrotation Zrotation Xrotation
						JOINT lHand
						{
							OFFSET 8.370511 0.000000 0.000000 
							CHANNELS 3 Zrotation Yrotation Xrotation
							End Site
							{
								OFFSET 4.083176 0.000000 0.000000 
							}
						}
					}
				}
			}
			JOINT rCollar
			{
				OFFSET -3.470700 6.669187 -0.816635 
				CHANNELS 3 Yrotation Zrotation Xrotation
				JOINT rShldr
				{
					OFFSET -3.198488 0.000000 0.000000 
					CHANNELS 3 Zrotation Yrotation Xrotation
					JOINT rForeArm
					{
						OFFSET -10.139888 0.000000 0.000000 
						CHANNELS 3 Yrotation Zrotation Xrotation
						JOINT rHand
						{
							OFFSET -8.370511 0.000000 0.000000 
							CHANNELS 3 Zrotation Yrotation Xrotation
							End Site
							{
								OFFSET -4.083176 0.000000 0.000000 
							}
						}
					}
				}
			}
		}
	}
	JOINT lThigh
	{
		OFFSET 5.308129 -1.633274 1.361059 
		CHANNELS 3 Xrotation Zrotation Yrotation
		JOINT lShin
		{
			OFFSET -2.041588 -20.007561 0.000000 
			CHANNELS 3 Xrotation Zrotation Yrotation
			JOINT lFoot
			{
				OFFSET 0.000000 -19.190928 -1.224953 
				CHANNELS 3 Xrotation Yrotation Zrotation
				End Site
				{
					OFFSET 0.000000 -2.449906 4.627600 
				}
			}
		}
	}
	JOINT rThigh
	{
		OFFSET -5.308129 -1.633274 1.361059 
		CHANNELS 3 Xrotation Zrotation Yrotation
		JOINT rShin
		{
			OFFSET 2.041588 -20.007561 0.000000 
			CHANNELS 3 Xrotation Zrotation Yrotation
			JOINT rFoot
			{
				OFFSET 0.000000 -19.190928 -1.224953 
				CHANNELS 3 Xrotation Yrotation Zrotation
				End Site
				{
					OFFSET 0.000000 -2.449906 4.627600 
				}
			}
		}
	}
}
MOTION
Frames: 11
Frame Time: 0.033333
1.224075 45.697945 1.371940 2.451172 3.876954 7.881519 10.370376 -8.712459 -6.345483 -7.685547 6.650391 5.517578 -9.467474 -3.808417 -7.902423 2.099609 -0.664063 -8.955079 2.000000 -2.000000 0.000000 29.101564 -22.851563 -64.212776 3.136658 -1.307830 2.439361 0.523773 34.763050 38.392300 -2.000000 2.000000 0.000000 -17.236328 2.031250 -39.804684 -3.195239 1.298082 2.438551 6.909577 -16.484745 29.367451 -21.127039 10.572296 7.559507 41.892094 -2.981099 -11.045324 -21.582123 0.066369 -4.810912 -17.352242 -21.013880 -2.350932 42.607296 2.744124 -10.096971 -22.728603 -1.665899 17.055799 
1.356336 45.705746 1.195886 2.373047 3.681641 8.183594 10.370376 -8.712459 -6.345483 -7.177733 6.718750 5.557784 -9.433962 -3.910741 -8.124052 1.630859 -0.673828 -9.189568 2.000000 -2.000000 0.000000 29.726564 -23.857424 -66.791061 3.126893 -1.307830 2.439362 3.160259 34.638680 41.172932 -2.000000 2.000000 0.000000 -14.833984 1.250000 -39.970490 -3.195239 1.298082 2.438551 6.113877 -14.144473 30.111593 -21.746662 10.243300 6.573476 42.045532 -2.961904 -9.994536 -21.212471 -0.075602 -4.958440 -17.192986 -20.971096 -2.411811 42.311573 2.763040 -10.568158 -22.331293 -1.641457 17.333731 
1.430458 45.511318 0.772424 3.427734 3.212891 9.990781 10.370376 -8.712459 -6.345483 -7.636719 6.611328 5.527236 -9.449374 -4.011600 -8.336706 1.132813 0.263672 -9.706986 2.000000 -2.000000 0.000000 32.138668 -26.484375 -70.624992 3.117127 -1.307830 2.439361 5.972075 34.971954 43.841812 -2.000000 2.000000 0.000000 -10.878907 -2.148437 -38.808594 -3.234315 1.307830 2.439138 6.456719 -8.512125 26.684584 -24.566874 9.783651 5.015177 43.452190 -2.909946 -9.929832 -21.166574 -0.235198 -4.717645 -18.895206 -20.525738 -2.004344 43.580208 2.674497 -13.915421 -21.949516 -1.778522 18.690699 
1.532768 45.464378 0.441080 3.193360 2.197266 10.107796 10.370376 -8.712459 -6.345483 -6.845703 7.304688 5.509055 -9.433262 -3.863899 -8.141587 0.908202 0.917969 -9.638674 2.000000 -2.000000 0.000000 32.607422 -27.539063 -71.820923 3.126893 -1.307830 2.439362 5.876330 32.842487 42.871887 -2.000000 2.000000 0.000000 -6.718750 -3.671875 -37.149063 -3.253860 1.317578 2.439726 6.949144 -2.695528 25.408714 -25.337824 10.603523 4.608737 44.269642 -2.861739 -10.752864 -21.277336 -0.302895 -4.221557 -18.803617 -19.662531 -2.015874 43.238415 2.694290 -11.334140 -22.271976 -1.961962 17.729900 
1.683402 46.847523 0.227525 1.230469 -0.126953 10.419900 10.370376 -8.712459 -6.345483 -4.267577 9.375001 5.558231 -9.356256 -3.464651 -7.518873 0.585937 1.806641 -9.160158 2.000000 -2.000000 0.000000 32.978512 -28.671873 -73.896484 3.136672 -1.317578 2.439950 7.613797 31.652107 42.772346 -2.000000 2.000000 0.000000 -1.445313 -5.546875 -34.736328 -3.292936 1.327325 2.440313 8.678575 6.058803 22.422428 -21.468704 12.447195 4.726145 38.438278 -3.163194 -10.485735 -17.842134 -0.623230 -3.975245 -8.045931 -16.686972 -5.382238 25.832268 3.479388 -10.152763 -14.431995 -0.725453 15.069716 
1.808238 46.851925 -0.055245 1.054688 -0.976563 9.921709 10.370376 -8.712459 -6.345483 -3.593750 9.414063 5.673828 -9.465554 -2.174758 -4.718916 0.273437 3.291015 -6.406250 2.000000 -2.000000 0.000000 32.314453 -29.414066 -71.557526 3.156203 -1.317578 2.439950 6.584266 28.842508 40.302586 -2.000000 2.000000 0.000000 3.828125 -5.419922 -33.672798 -3.302701 1.327326 2.440313 8.850130 13.235204 22.578556 -21.953684 13.330656 4.893374 38.877651 -3.149389 -10.580126 -17.752745 -0.642607 -3.795680 -6.394616 -16.594685 -5.994356 23.021328 3.602022 -3.392164 -14.544749 -1.193950 13.963825 
1.893685 46.860733 -0.312594 2.304688 -1.582031 8.339843 10.370376 -8.712459 -6.345483 -5.009766 9.248047 5.507813 -9.582236 -1.182276 -2.527530 1.201172 4.267578 -4.159430 2.000000 -2.000000 0.000000 30.576172 -29.511721 -71.718750 3.156203 -1.317578 2.439950 6.946740 23.571194 39.643372 -2.000000 2.000000 0.000000 8.623046 -3.603516 -32.441406 1.736029 1.248167 2.455107 9.205025 15.858716 22.145502 -23.433870 13.591339 4.774252 39.041885 -3.094998 -9.266087 -17.672304 -0.506501 -4.027586 -6.923615 -16.667784 -6.466788 21.502539 3.759584 8.031701 -16.192629 -0.914053 11.370004 
1.956481 46.700912 -0.596370 2.382812 -1.572258 8.290977 10.370376 -8.712459 -6.345483 -4.853515 8.447267 5.645966 -9.599616 -0.108245 -0.062637 0.615235 5.566406 -1.805694 2.000000 -2.000000 0.000000 30.029295 -31.777346 -73.486328 3.156203 -1.317578 2.439950 7.854746 20.676931 39.730919 -2.000000 2.000000 0.000000 15.751953 -4.179688 -28.496094 14.752300 1.058843 2.512171 7.530995 13.813860 13.985877 -24.259834 13.608156 4.893337 39.924450 -3.049497 -9.061990 -17.761551 -0.504045 -4.016808 -5.028718 -18.432558 -7.556921 19.125629 3.877003 14.451748 -16.769707 -1.387926 11.412883 
1.729460 46.455013 -1.035059 2.968750 -2.050781 6.200822 10.370376 -8.712459 -6.345483 -5.458984 7.968750 5.645885 -9.587527 1.344710 3.145170 0.576171 7.656250 1.181641 2.000000 -2.000000 0.000000 26.093750 -30.732422 -68.422966 3.175748 -1.327326 2.440539 5.125814 13.336624 35.571678 -2.000000 2.000000 0.000000 22.158203 -1.093750 -27.382813 22.162994 0.947500 2.573931 8.778660 14.905918 12.878771 -25.618902 15.054192 5.998242 41.266827 -2.990676 -9.194712 -18.033844 -0.285839 -4.197226 -3.809010 -20.046083 -8.202465 15.639354 3.906067 8.605465 -13.553819 -1.664365 15.637672 
1.529118 46.108570 -1.397361 3.085938 -1.738281 4.950876 10.370376 -8.712459 -6.345483 -5.751953 7.148438 5.712891 -9.502470 2.460734 5.634111 -0.048829 7.832032 3.935547 2.000000 -2.000000 0.000000 20.742188 -29.677732 -63.691406 3.205059 -1.337074 2.441128 3.406339 5.674341 31.121681 -2.000000 2.000000 0.000000 28.916016 -0.019531 -20.869143 35.841297 0.791869 2.721053 6.257023 8.882452 7.047789 -26.724062 15.006863 5.242185 42.685143 -2.919634 -7.110512 -18.350935 -0.195568 -5.218608 -0.372462 -22.552454 -9.855179 11.979784 3.883801 -0.882985 -9.639405 -1.391113 20.380817 
1.285613 45.580914 -1.665532 2.119140 -1.025388 5.722640 10.370376 -8.712459 -6.345483 -4.882812 6.181641 5.948317 -9.362301 3.348271 7.665223 -0.566406 8.398438 6.044923 2.000000 -2.000000 0.000000 17.460936 -32.353512 -63.867188 3.214824 -1.337074 2.441128 3.800356 0.275020 30.328274 -2.000000 2.000000 0.000000 37.382809 -0.625000 -16.943357 46.726795 0.705053 2.862660 5.375105 7.931486 5.608840 -27.359953 14.470717 4.489302 44.753014 -2.802723 -7.552523 -18.948809 -0.261513 -5.302796 6.705490 -25.033072 -12.660682 8.426118 3.903600 -7.867482 -7.283502 -2.430959 24.503925 
